<svg width="24" height="24" viewBox="0 0 24 24" fill="none" xmlns="http://www.w3.org/2000/svg">
<path d="M17.9999 14.0001C17.4091 14.004 16.8265 14.1388 16.2939 14.3947C15.7614 14.6506 15.2921 15.0213 14.9199 15.4801L9.81991 13.1301C10.0597 12.3959 10.0597 11.6044 9.81991 10.8701L14.9199 8.52011C15.5215 9.24608 16.3602 9.73619 17.2881 9.90395C18.2159 10.0717 19.1731 9.90634 19.9909 9.43702C20.8086 8.96769 21.4343 8.22459 21.7575 7.33886C22.0806 6.45312 22.0805 5.4817 21.7572 4.59602C21.4339 3.71035 20.8081 2.96736 19.9902 2.49818C19.1724 2.02901 18.2151 1.86381 17.2873 2.03174C16.3596 2.19967 15.5209 2.68993 14.9194 3.41601C14.318 4.14208 13.9923 5.05729 13.9999 6.00011C14.0029 6.23835 14.0263 6.47588 14.0699 6.71011L8.78991 9.14011C8.22699 8.58969 7.51415 8.21763 6.74071 8.07054C5.96727 7.92345 5.16762 8.00788 4.44196 8.31325C3.71629 8.61861 3.09687 9.13133 2.66131 9.78718C2.22574 10.443 1.99341 11.2128 1.99341 12.0001C1.99341 12.7874 2.22574 13.5572 2.66131 14.2131C3.09687 14.8689 3.71629 15.3816 4.44196 15.687C5.16762 15.9923 5.96727 16.0768 6.74071 15.9297C7.51415 15.7826 8.22699 15.4105 8.78991 14.8601L14.0699 17.2901C14.0263 17.5243 14.0029 17.7619 13.9999 18.0001C13.9999 18.7912 14.2345 19.5646 14.674 20.2224C15.1136 20.8802 15.7383 21.3929 16.4692 21.6956C17.2001 21.9984 18.0043 22.0776 18.7803 21.9233C19.5562 21.7689 20.2689 21.388 20.8283 20.8285C21.3877 20.2691 21.7687 19.5564 21.923 18.7805C22.0774 18.0046 21.9982 17.2003 21.6954 16.4694C21.3927 15.7385 20.88 15.1138 20.2222 14.6742C19.5644 14.2347 18.791 14.0001 17.9999 14.0001ZM17.9999 4.00011C18.3955 4.00011 18.7822 4.11741 19.111 4.33718C19.4399 4.55694 19.6963 4.8693 19.8477 5.23475C19.999 5.6002 20.0386 6.00233 19.9615 6.3903C19.8843 6.77826 19.6938 7.13462 19.4141 7.41433C19.1344 7.69403 18.778 7.88451 18.3901 7.96169C18.0021 8.03886 17.6 7.99925 17.2345 7.84787C16.8691 7.6965 16.5567 7.44015 16.337 7.11125C16.1172 6.78236 15.9999 6.39568 15.9999 6.00011C15.9999 5.46968 16.2106 4.96097 16.5857 4.5859C16.9608 4.21083 17.4695 4.00011 17.9999 4.00011ZM5.99991 14.0001C5.60434 14.0001 5.21766 13.8828 4.88877 13.6631C4.55987 13.4433 4.30352 13.1309 4.15215 12.7655C4.00077 12.4 3.96116 11.9979 4.03834 11.6099C4.11551 11.222 4.30599 10.8656 4.58569 10.5859C4.8654 10.3062 5.22176 10.1157 5.60973 10.0385C5.99769 9.96137 6.39982 10.001 6.76527 10.1524C7.13073 10.3037 7.44308 10.5601 7.66285 10.889C7.88261 11.2179 7.99991 11.6046 7.99991 12.0001C7.99991 12.5305 7.78919 13.0393 7.41412 13.4143C7.03905 13.7894 6.53034 14.0001 5.99991 14.0001ZM17.9999 20.0001C17.6043 20.0001 17.2177 19.8828 16.8888 19.6631C16.5599 19.4433 16.3035 19.1309 16.1521 18.7655C16.0008 18.4 15.9612 17.9979 16.0383 17.6099C16.1155 17.222 16.306 16.8656 16.5857 16.5859C16.8654 16.3062 17.2218 16.1157 17.6097 16.0385C17.9977 15.9614 18.3998 16.001 18.7653 16.1524C19.1307 16.3037 19.4431 16.5601 19.6628 16.889C19.8826 17.2179 19.9999 17.6046 19.9999 18.0001C19.9999 18.5305 19.7892 19.0393 19.4141 19.4143C19.039 19.7894 18.5303 20.0001 17.9999 20.0001Z" fill="black"/>
</svg>
